Coordinates
version=1
nRows=13
nColumns=22
inDegrees=yes

Units are S.I. units (second, meters, Newtons, ...)
If the header above contains a line with 'inDegrees', this indicates whether rotational values are in degrees (yes) or radians (no).

endheader
time	pelvis_tilt	pelvis_list	pelvis_rotation	pelvis_tx	pelvis_ty	pelvis_tz	hip_flexion_r	hip_adduction_r	hip_rotation_r	knee_angle_r	ankle_angle_r	subtalar_angle_r	hip_flexion_l	hip_adduction_l	hip_rotation_l	knee_angle_l	ankle_angle_l	subtalar_angle_l	lumbar_extension	lumbar_bending	lumbar_rotation
      2.52000000	      4.49725093	      3.95446499	    -36.63772846	     -0.01598561	      1.07538155	     -0.40508547	     17.96782552	     -3.30806453	      2.95434229	    -57.14625492	      8.93102389	     -0.73719291	      4.48262367	      5.67137843	      2.05992120	    -14.80406424	     10.68421936	      1.74821452	     -7.06777969	     -7.28248833	     -5.50701667
      2.53000000	      4.49609289	      3.81373696	    -36.94851117	     -0.00948895	      1.07570179	     -0.40146566	     18.69947332	     -3.22538217	      2.37634660	    -56.31360508	      9.46138361	     -0.93781266	      3.74984286	      5.59886740	      1.74307932	    -14.41423109	     10.99569891	      1.71103206	     -7.18669300	     -7.14234414	     -5.73810232
      2.54000000	      4.49555153	      3.69206657	    -37.24905607	     -0.00306913	      1.07587712	     -0.39780584	     19.40212161	     -3.16828582	      1.75915781	    -55.37908605	      9.96561809	     -1.05546262	      3.03857816	      5.54592972	      1.44539444	    -14.04006221	     11.30931570	      1.68296657	     -7.29286526	     -7.02221480	     -5.97435815
      2.55000000	      4.50346244	      3.57110227	    -37.54111289	      0.00327854	      1.07596018	     -0.39407059	     20.04506328	     -3.11783595	      1.11534221	    -54.33249978	     10.44098336	     -1.12722695	      2.32433031	      5.50058909	      1.17662842	    -13.67267354	     11.62548393	      1.66278837	     -7.40304307	     -6.91012626	     -6.23622524
      2.56000000	      4.50395391	      3.46858931	    -37.82343644	      0.00957233	      1.07590294	     -0.39029250	     20.66148141	     -3.09107195	      0.42567054	    -53.19672918	     10.90871658	     -1.13283645	      1.64722629	      5.46842412	      0.91933839	    -13.33932170	     11.95014684	      1.64042956	     -7.49184359	     -6.80929542	     -6.48618126
      2.57000000	      4.49604956	      3.37384457	    -38.09452651	      0.01583561	      1.07572732	     -0.38644887	     21.23987249	     -3.07702248	     -0.31023880	    -51.97248305	     11.34843668	     -1.09999883	      0.99818268	      5.43885085	      0.67790438	    -13.03885106	     12.28463717	      1.60812158	     -7.56366793	     -6.70702470	     -6.73673129
      2.58000000	      4.47541788	      3.28905753	    -38.35926106	      0.02206883	      1.07543464	     -0.38252548	     21.78388399	     -3.06963873	     -1.08232927	    -50.66636665	     11.76005502	     -1.05194313	      0.38201478	      5.41143650	      0.45389877	    -12.77172283	     12.62072060	      1.55791470	     -7.61173477	     -6.60520605	     -6.98013592
      2.59000000	      4.44709415	      3.19956046	    -38.61328108	      0.02830482	      1.07505630	     -0.37852130	     22.27500820	     -3.06736520	     -1.90995593	    -49.27716139	     12.12622698	     -1.00703700	     -0.21843013	      5.37807407	      0.25835657	    -12.53516004	     12.94434628	      1.47970940	     -7.64978447	     -6.49002768	     -7.20306050
      2.60000000	      4.40076456	      3.12022635	    -38.85859931	      0.03452516	      1.07456462	     -0.37442650	     22.73487547	     -3.06493834	     -2.77182991	    -47.81561533	     12.45020727	     -0.97340379	     -0.78033564	      5.34279152	      0.07468594	    -12.33502117	     13.26802857	      1.36516394	     -7.65855975	     -6.37011473	     -7.43133833
      2.61000000	      4.35868485	      3.02015498	    -39.08293862	      0.04076764	      1.07403476	     -0.37025430	     23.11599512	     -3.06909468	     -3.71621345	    -46.27272390	     12.70333697	     -0.96928577	     -1.34844700	      5.29643560	     -0.07019919	    -12.16508214	     13.55915531	      1.19289919	     -7.68288410	     -6.23257033	     -7.62214648
      2.62000000	      4.32012558	      2.91759772	    -39.30093553	      0.04699702	      1.07344306	     -0.36597251	     23.43346575	     -3.06871220	     -4.68493101	    -44.65638656	     12.92152481	     -1.00883763	     -1.91478848	      5.25137934	     -0.20937258	    -12.01173365	     13.83693990	      0.96124825	     -7.70762125	     -6.09362107	     -7.82742767
      2.63000000	      4.25379252	      2.82062091	    -39.49306464	      0.05321347	      1.07275192	     -0.36163552	     23.72182129	     -3.06362963	     -5.71700932	    -42.97185833	     13.05681506	     -1.06274741	     -2.42961624	      5.19147536	     -0.33600072	    -11.90766250	     14.13795482	      0.73325654	     -7.70531329	     -5.93753390	     -8.02783302
      2.64000000	      4.18087181	      2.71841658	    -39.66951601	      0.05941844	      1.07200207	     -0.35720942	     23.95223978	     -3.04958752	     -6.79991931	    -41.21648617	     13.11619724	     -1.14286016	     -2.92885862	      5.12139916	     -0.45724337	    -11.83422481	     14.45138093	      0.51349675	     -7.70057164	     -5.77119502	     -8.22195764
